# xmcd
#
# Track frame offsets: 
#        180
#        8745
#        20520
#        31466
#        42980
#        52662
#        61293
#        73250
#        82950
#        93634
#        106227
#        117430
#        130866
#        142370
#        154058
#        166468
#        176812
#        188035
#        198817
#        211918
#        221661
#        233267
#        241562
#        253102
#        264291
#        277518
#
# Disc length: 3845 seconds
#
# Revision: 0
# Processed by: cddbd v1.5.2PL0 Copyright (c) Steve Scherf et al.
# Submitted via: ExactAudioCopy v0.95b2
#
DISCID=600f031a
DTITLE=Don Covay - Ooh! My Soul
DYEAR=1900
DGENRE=R&B
TTITLE0=Ooh! My Soul
TTITLE1=Paper Dollar
TTITLE2=Switchin' in the Kitchen
TTITLE3=Believe It or Not
TTITLE4=Shake wid the Snake
TTITLE5=Bip Bop Bip
TTITLE6=Rockin' the Mule
TTITLE7=Comin' Down with the Blues
TTITLE8=Betty Jean
TTITLE9=One Little Boy Had Money
TTITLE10=The Fat Man
TTITLE11=See About Me
TTITLE12=Come On Back
TTITLE13=Every Which-A-Way
TTITLE14=Where Are You?
TTITLE15=Pony Time
TTITLE16=The Popeye Waddle
TTITLE17=Please Don't Let Me Know
TTITLE18=Hand Jive Workout
TTITLE19=Love Boat
TTITLE20=Can't You See I Love You So?
TTITLE21=It's Terrific
TTITLE22=A Woman's Love
TTITLE23=Take This Hurt Off Me
TTITLE24=See-Saw
TTITLE25=Mercy, Mercy
EXTD=
EXTT0=
EXTT1=
EXTT2=
EXTT3=
EXTT4=
EXTT5=
EXTT6=
EXTT7=
EXTT8=
EXTT9=
EXTT10=
EXTT11=
EXTT12=
EXTT13=
EXTT14=
EXTT15=
EXTT16=
EXTT17=
EXTT18=
EXTT19=
EXTT20=
EXTT21=
EXTT22=
EXTT23=
EXTT24=
EXTT25=
PLAYORDER=
